<svg xmlns="http://www.w3.org/2000/svg" xmlns:xlink="http://www.w3.org/1999/xlink" version="1.1" x="0px" y="0px" viewBox="0 0 785 225.7" style="enable-background:new 0 0 785 225.7;" xml:space="preserve">
<style type="text/css">
	.st0{display:none;}
	.st1{display:inline;fill:#113133;}
	.st2{display:inline;fill:#00855B;}
	.st3{fill:#123133;}
	.st4{fill:#00845B;}
</style>
<g id="Layer_1" class="st0">
	<path class="st1" d="M181.3,165.6c-4.3-4.3-11.3-4.3-15.6,0c-15.8,15.8-36.7,24.3-59.2,24.3C84,189.8,62.9,181,46.9,165   C14,132.1,13.8,78.9,46.3,46.3C78.9,13.8,132.1,14,165,46.9c2.2,2.2,5,3.2,7.8,3.2c2.8,0,5.7-1.1,7.8-3.2c4.3-4.3,4.3-11.3,0-15.6   c-41.5-41.5-108.8-41.8-150-0.6c-41.2,41.2-40.9,108.4,0.6,150l0,0c20.1,20.1,46.8,31.2,75.1,31.4c0.2,0,0.3,0,0.5,0   c28.2,0,54.6-10.9,74.4-30.7C185.6,177,185.6,170,181.3,165.6z"/>
	<path class="st2" d="M193.1,155.6c-1.5,0-3-0.3-4.4-0.9c-5.6-2.4-8.2-8.9-5.7-14.5c9.3-21.4,9.2-46.1-0.4-67.6   c-2.5-5.6,0-12.1,5.6-14.6c5.6-2.5,12.1,0,14.6,5.6c12.1,27.2,12.2,58.3,0.5,85.4C201.5,153.1,197.4,155.6,193.1,155.6z"/>
	<path class="st1" d="M439.2,155.6c-0.3-2.5-0.5-5.3-0.6-8.4c-0.1-3.1-0.2-5.7-0.2-7.8H438c-2.5,5.3-6.7,9.7-12.6,13.4   c-5.9,3.7-12.4,5.5-19.7,5.5c-6.4,0-11.9-1-16.5-3.1c-4.6-2.1-8.5-5-11.4-8.6c-3-3.7-5.2-7.9-6.6-12.8c-1.5-4.8-2.2-10-2.2-15.6V57   h19.5v54.5c0,4,0.3,7.9,0.9,11.5c0.6,3.7,1.8,6.9,3.4,9.7c1.7,2.8,3.9,5,6.9,6.7c2.9,1.7,6.7,2.5,11.2,2.5c7.9,0,14.3-2.9,19.1-8.8   c4.8-5.9,7.3-13.8,7.3-23.6V57h19.5v77.3c0,2.6,0.1,6,0.2,10.2c0.1,4.2,0.3,7.8,0.6,11H439.2L439.2,155.6z"/>
	<path class="st1" d="M473.4,68c-0.1-4.2-0.4-7.8-0.6-11h18.5c0.3,2.5,0.5,5.4,0.6,8.6c0.1,3.3,0.2,5.9,0.2,8h0.6   c2.8-5.8,6.8-10.5,12.2-14c5.3-3.5,11.3-5.3,18-5.3c3,0,5.6,0.3,7.7,0.8l-0.8,18.1c-2.8-0.7-5.8-1-8.9-1c-4.7,0-8.8,0.9-12.3,2.6   c-3.5,1.7-6.3,4.1-8.6,7c-2.3,2.9-4,6.3-5.1,10.1c-1.1,3.8-1.7,7.8-1.7,12v51.8h-19.5V78.3C473.6,75.6,473.5,72.2,473.4,68z"/>
	<path class="st1" d="M611.3,97.6c-0.1-3.9-0.8-7.5-2-10.9c-1.2-3.4-2.9-6.3-5.2-8.8c-2.3-2.5-5.1-4.5-8.5-5.9   c-3.4-1.5-7.4-2.2-12-2.2c-4.2,0-8.1,0.7-11.7,2.2c-3.7,1.5-6.9,3.4-9.6,5.9c-2.7,2.5-4.9,5.4-6.7,8.8c-1.7,3.4-2.7,7-3,10.9H611.3   z M631.2,105.5v3.3c0,1.1-0.1,2.2-0.2,3.3h-78.4c0.1,4.1,1.1,8,2.8,11.7c1.7,3.6,4.1,6.8,7,9.5c2.9,2.7,6.3,4.8,10.1,6.3   c3.8,1.5,7.9,2.3,12.2,2.3c6.7,0,12.4-1.5,17.3-4.4c2.4-1.5,4.6-3.1,6.5-4.8c3.2-3,8-3.3,11.4-0.6l0.2,0.1c4,3.3,4.4,9.4,0.6,12.9   c-3.7,3.4-7.7,6.2-12.1,8.2c-7.1,3.3-15.1,4.9-23.8,4.9c-7.5,0-14.4-1.3-20.8-3.7c-6.4-2.5-11.8-6-16.4-10.5   c-4.6-4.5-8.2-9.9-10.8-16.3c-2.6-6.4-3.9-13.4-3.9-21.2c0-7.6,1.3-14.7,3.9-21.1c2.6-6.5,6.1-12,10.7-16.5   c4.6-4.6,10-8.1,16.3-10.7c6.2-2.6,13-3.8,20.2-3.8c7.2,0,13.8,1.2,19.7,3.5c5.9,2.4,10.9,5.7,15,10.2c4.1,4.4,7.3,9.8,9.5,16.1   C630.1,90.5,631.2,97.6,631.2,105.5z"/>
	<path class="st1" d="M659.2,106.2c0,4.6,0.7,9,2.1,13.3c1.4,4.3,3.5,8.1,6.2,11.4c2.8,3.3,6.2,6,10.2,8c4,2,8.7,3,14.1,3   c5,0,9.5-1,13.6-2.9c4.1-1.9,7.6-4.5,10.5-7.8c2.9-3.2,5.2-7,6.8-11.3c1.6-4.3,2.4-8.8,2.4-13.5c0-4.7-0.8-9.2-2.4-13.5   c-1.6-4.3-3.8-8.1-6.8-11.4c-2.9-3.3-6.4-5.9-10.5-7.9c-4.1-1.9-8.6-2.9-13.6-2.9c-5.4,0-10.1,1-14.1,2.9s-7.4,4.6-10.2,7.9   c-2.8,3.3-4.9,7.1-6.2,11.4C659.9,97.2,659.2,101.6,659.2,106.2z M724.1,140c-3.7,6-8.8,10.5-15.3,13.6c-6.4,3.1-13.2,4.7-20.3,4.7   c-7.6,0-14.5-1.4-20.6-4.1c-6.1-2.7-11.3-6.4-15.6-11.1c-4.3-4.7-7.6-10.3-10-16.6c-2.4-6.4-3.5-13.2-3.5-20.4   c0-7.2,1.2-14,3.5-20.3c2.4-6.3,5.7-11.8,10.1-16.5c4.4-4.7,9.6-8.4,15.7-11c6.1-2.6,12.8-3.9,20.2-3.9c8,0,15,1.7,21,5.1   c6,3.4,10.7,7.5,14.1,12.4h0.4V10.5h19.5v145.1h-18.9V140H724.1z"/>
	<path class="st1" d="M785,143.1c0,3.6-1.3,6.8-3.9,9.6c-2.6,2.8-6,4.2-10,4.2c-3.9,0-7.2-1.4-9.9-4.1c-2.7-2.7-4.1-5.8-4.1-9.5   c0-3.7,1.3-7,3.9-9.7c2.6-2.7,6-4.1,10-4.1c4,0,7.3,1.3,10,3.9C783.7,136.2,785,139.4,785,143.1z"/>
	<path class="st1" d="M355.9,70.9c-0.8-1-1.6-2-2.4-2.9c-4.1-4.4-9.1-7.8-15-10.2c-5.9-2.4-12.5-3.5-19.7-3.5   c-7.2,0-14,1.3-20.2,3.8c-6.2,2.6-11.7,6.1-16.3,10.7c-4.6,4.6-8.2,10.1-10.7,16.5c-2.6,6.4-3.9,13.5-3.9,21.1   c0,7.8,1.3,14.8,4,21.2c2.6,6.4,6.2,11.8,10.8,16.3c4.6,4.5,10,8,16.4,10.5c6.4,2.5,13.3,3.7,20.8,3.7c8.7,0,16.7-1.7,23.8-4.9   c4.4-2,8.4-4.8,12.1-8.2c3.8-3.5,3.5-9.7-0.6-12.9l-0.2-0.1c-3.4-2.7-8.2-2.4-11.4,0.6c-1.9,1.8-4.1,3.4-6.5,4.8   c-4.9,2.9-10.6,4.4-17.3,4.4c-4.3,0-8.4-0.8-12.2-2.3c-3.8-1.5-7.2-3.6-10.1-6.3c-2.9-2.7-5.8-6.5-7-9.5c-4.5-11.3-3.9-30,0.2-37.1   c1.9-3.3,4-6.3,6.7-8.8c2.7-2.5,5.9-4.5,9.6-5.9c3.7-1.5,7.6-2.2,11.7-2.2c4.6,0,8.6,0.7,12,2.2c3.4,1.5,6.2,3.4,8.5,5.9   c1.2,1.3,3.1,4.2,3.1,4.2S355.9,70.9,355.9,70.9z"/>
</g>
<g id="Layer_2">
	<path class="st3" d="M281,24.8c0-4.1,3.3-7.1,7.1-7.1c1.8-0.1,3.6,0.6,4.9,2c1.3,1.3,2.1,3.2,2.1,5.1c-0.1,4-3.2,7.2-7,7.1   C284.2,31.9,281,28.7,281,24.8L281,24.8z M282.4,37.8h11.5v38.7h-11.5V37.8z M334.9,55.6v20.8h-11.5V57.1c0-6-3.4-8.2-6.3-8.2   c-3.1,0-7,1.7-7,8.2v19.4h-11.5V37.8h11.5v6.9c1.2-5.5,7-7.9,10.4-7.9C330.2,36.8,334.9,43.8,334.9,55.6z M375.5,55.6v20.8h-11.5   V57.1c0-6-3.4-8.2-6.3-8.2c-3.1,0-7,1.7-7,8.2v19.4h-11.5V37.8h11.5v6.9c1.2-5.5,7-7.9,10.4-7.9C370.8,36.8,375.5,43.8,375.5,55.6z    M377.9,57.1c0-12.3,9.3-20.2,19.6-20.2c10.3,0,19.7,7.9,19.7,20.2s-9.4,20.2-19.7,20.2C387.2,77.2,377.9,69.2,377.9,57.1z    M405.5,57.1c0-5.3-3.6-8.9-8-8.9c-4.4,0-8,3.6-8,8.9s3.6,8.8,8,8.8C401.9,65.9,405.4,62.4,405.5,57.1L405.5,57.1z M454.9,37.8   l-15.3,38.7h-10l-15.3-38.7h12.5l7.9,23l7.8-23H454.9z M492.4,37.8v38.7H481v-4.4c-2.6,3.6-7.5,5.1-11.2,5.1   c-9,0-17.5-7.6-17.5-20.2s8.5-20.2,17.5-20.2c3.7,0,8.6,1.5,11.2,5.1v-4.2H492.4L492.4,37.8z M480.5,57.1c0.1-3.6-1.9-7-5-8.4   c-3.1-1.4-6.7-0.7-9.1,1.8c-2.4,2.5-3.2,6.4-1.9,9.8c1.3,3.4,4.3,5.5,7.7,5.5C476.8,65.8,480.5,61.9,480.5,57.1z M495.2,57   c0-12.3,9.4-20.2,19.9-20.2c7,0,12.3,3.6,15.8,9.1l-8.8,6c-1.6-2.3-4.2-3.7-6.9-3.7c-5.3,0-8.4,4-8.4,8.8s3.1,8.9,8.4,8.9   c2.7,0,5.3-1.4,6.9-3.7l8.8,6c-3.5,5.5-8.8,9.1-15.8,9.1C504.6,77.2,495.2,69.2,495.2,57z M530.4,57c0-12.3,9.4-20.2,19.9-20.2   c7,0,12.3,3.6,15.8,9.1l-8.8,6c-1.6-2.3-4.2-3.7-6.9-3.7c-5.3,0-8.4,4-8.4,8.8s3.1,8.9,8.4,8.9c2.7,0,5.2-1.4,6.9-3.7l8.8,6   c-3.5,5.5-8.8,9.1-15.8,9.1C539.8,77.2,530.4,69.2,530.4,57z M604,60.7h-26.4c1.1,3.6,4.1,5.8,8.4,5.8c3.4,0,6.6-1.3,9.1-3.7l5.9,8   c-3.6,4.1-9.7,6.5-15.9,6.5c-11.4,0-19.5-8.2-19.5-20c0-12.6,9.1-20.4,19.5-20.4c10.4,0,19,7.7,19,19.5   C604.2,57.4,604.1,58.8,604,60.7L604,60.7z M592.7,53.5c-0.1-3.8-3.3-6.3-7.3-6.3c-3.5,0-6.7,1.7-7.9,6.3H592.7z M634.4,38   l-2.7,11.7c-1.6-1-3.4-1.5-5.2-1.5c-4.5,0-8.2,4-8.2,15.4v12.9h-11.5V37.8h11.3v8.1c2.1-6.4,6.4-9.1,10.8-9.1   C630.8,36.7,632.7,37.1,634.4,38z"/>
	<path class="st3" d="M448.1,202.7c-0.3-2.4-0.5-5.1-0.6-8.2c-0.1-3-0.2-5.6-0.2-7.6h-0.4c-2.4,5.1-6.5,9.5-12.3,13   c-5.7,3.6-12.1,5.4-19.1,5.4c-6.2,0-11.6-1-16.1-3c-4.5-2-8.2-4.8-11.1-8.4c-2.9-3.6-5.1-7.7-6.5-12.4c-1.4-4.7-2.1-9.8-2.1-15.2   V107h19v52.9c0,3.9,0.3,7.7,0.9,11.2c0.6,3.6,1.7,6.7,3.3,9.4c1.6,2.7,3.8,4.8,6.7,6.5c2.8,1.6,6.5,2.4,10.9,2.4   c7.7,0,13.9-2.9,18.6-8.6c4.7-5.7,7.1-13.4,7.1-22.9V107h19v75.2c0,2.6,0.1,5.9,0.2,9.9c0.1,4,0.3,7.6,0.6,10.7H448.1z"/>
	<path class="st3" d="M481.4,117.7c-0.1-4-0.3-7.6-0.6-10.7h18c0.3,2.4,0.5,5.2,0.6,8.4c0.1,3.2,0.2,5.8,0.2,7.8h0.6   c2.7-5.7,6.6-10.2,11.8-13.6c5.2-3.4,11-5.1,17.5-5.1c3,0,5.5,0.3,7.5,0.8l-0.8,17.6c-2.7-0.7-5.6-1-8.7-1c-4.6,0-8.6,0.8-12,2.5   c-3.4,1.7-6.2,3.9-8.4,6.8c-2.2,2.8-3.9,6.1-5,9.8c-1.1,3.7-1.6,7.6-1.6,11.6v50.3h-19v-75.2C481.6,125,481.5,121.7,481.4,117.7z"/>
	<path class="st3" d="M615.7,146.4c-0.1-3.8-0.8-7.3-1.9-10.6c-1.2-3.3-2.8-6.2-5.1-8.6c-2.2-2.4-5-4.3-8.3-5.8   c-3.3-1.4-7.2-2.1-11.7-2.1c-4.1,0-7.9,0.7-11.4,2.1c-3.6,1.4-6.7,3.3-9.3,5.8c-2.6,2.4-4.8,5.3-6.5,8.6c-1.7,3.3-2.7,6.8-2.9,10.6   H615.7z M635.2,154v3.2c0,1.1-0.1,2.2-0.2,3.2h-76.4c0.1,4,1,7.8,2.7,11.3c1.7,3.5,4,6.6,6.8,9.2c2.8,2.6,6.1,4.6,9.8,6.1   c3.7,1.5,7.7,2.2,11.8,2.2c6.5,0,12.1-1.4,16.8-4.2c2.4-1.4,4.5-3,6.3-4.7c3.1-2.9,7.8-3.2,11.1-0.6l0.2,0.1   c3.9,3.2,4.3,9.1,0.6,12.6c-3.6,3.3-7.5,6-11.8,8c-7,3.2-14.7,4.8-23.2,4.8c-7.3,0-14-1.2-20.3-3.6c-6.2-2.4-11.5-5.8-16-10.2   c-4.5-4.4-8-9.7-10.5-15.9c-2.6-6.2-3.8-13.1-3.8-20.6c0-7.4,1.2-14.3,3.8-20.5c2.5-6.3,6-11.6,10.5-16.1   c4.5-4.4,9.7-7.9,15.8-10.4c6.1-2.5,12.6-3.7,19.7-3.7c7,0,13.4,1.1,19.2,3.4c5.7,2.3,10.6,5.6,14.6,9.9c4,4.3,7.1,9.5,9.2,15.7   C634.1,139.5,635.2,146.4,635.2,154z"/>
	<path class="st3" d="M662.4,154.7c0,4.4,0.7,8.7,2,12.9c1.3,4.2,3.4,7.9,6.1,11.1c2.7,3.2,6,5.8,9.9,7.8c3.9,1.9,8.5,2.9,13.8,2.9   c4.9,0,9.3-0.9,13.3-2.8c4-1.9,7.4-4.4,10.2-7.6c2.8-3.2,5-6.8,6.6-11c1.6-4.2,2.3-8.5,2.3-13.1c0-4.6-0.8-8.9-2.3-13.1   c-1.6-4.2-3.7-7.9-6.6-11.1c-2.8-3.2-6.2-5.8-10.2-7.7c-4-1.9-8.4-2.8-13.3-2.8c-5.3,0-9.9,0.9-13.8,2.8c-3.9,1.9-7.2,4.4-9.9,7.7   c-2.7,3.2-4.7,6.9-6.1,11.1C663.1,146,662.4,150.3,662.4,154.7z M725.6,187.6c-3.6,5.8-8.6,10.2-14.9,13.2   c-6.3,3-12.9,4.5-19.8,4.5c-7.4,0-14.1-1.3-20.1-3.9c-5.9-2.6-11-6.2-15.2-10.8c-4.2-4.6-7.4-10-9.7-16.2   c-2.3-6.2-3.4-12.8-3.4-19.8c0-7,1.1-13.6,3.4-19.7c2.3-6.1,5.6-11.5,9.8-16.1c4.3-4.6,9.3-8.1,15.3-10.7   c5.9-2.6,12.5-3.8,19.7-3.8c7.8,0,14.6,1.7,20.5,5c5.8,3.3,10.4,7.3,13.8,12h0.4V61.7h19v141h-18.4v-15.2H725.6z"/>
	<path class="st3" d="M785,190.6c0,3.5-1.3,6.6-3.8,9.3c-2.6,2.7-5.8,4-9.7,4c-3.8,0-7-1.3-9.6-3.9c-2.6-2.6-4-5.7-4-9.2   c0-3.6,1.3-6.8,3.8-9.4c2.6-2.6,5.8-3.9,9.7-3.9c3.9,0,7.2,1.3,9.7,3.8C783.7,183.9,785,187,785,190.6z"/>
	<path class="st3" d="M366.9,120.5c-0.7-1-1.5-1.9-2.4-2.8c-4-4.3-8.9-7.6-14.6-9.9c-5.8-2.3-12.1-3.4-19.2-3.4   c-7,0-13.6,1.2-19.7,3.7c-6.1,2.5-11.4,6-15.8,10.4c-4.5,4.4-8,9.8-10.5,16.1c-2.5,6.3-3.8,13.1-3.8,20.5c0,7.5,1.3,14.4,3.9,20.6   c2.6,6.2,6.1,11.5,10.5,15.9c4.5,4.4,9.8,7.8,16,10.2c6.2,2.4,13,3.6,20.3,3.6c8.5,0,16.2-1.6,23.2-4.8c4.3-2,8.2-4.6,11.8-8   c3.7-3.4,3.4-9.4-0.6-12.6l-0.2-0.1c-3.3-2.7-8-2.3-11.1,0.6c-1.9,1.7-4,3.3-6.3,4.7c-4.7,2.8-10.3,4.2-16.8,4.2   c-4.2,0-8.1-0.7-11.8-2.2c-3.7-1.5-7-3.5-9.8-6.1c-2.8-2.6-5.6-6.3-6.8-9.2c-4.3-11-3.8-29.2,0.2-36.1c1.9-3.2,3.9-6.2,6.5-8.6   c2.6-2.4,5.7-4.3,9.3-5.8c3.6-1.4,7.4-2.1,11.4-2.1c4.5,0,8.3,0.7,11.7,2.1c3.3,1.4,6.1,3.3,8.3,5.8c1.1,1.2,3,4,3,4   C353.6,131.2,366.9,120.5,366.9,120.5z"/>
	<path class="st3" d="M193.5,176.3c-4.6-4.6-12.1-4.6-16.7,0c-16.8,16.8-39.2,25.9-63.1,25.8c-24-0.1-46.5-9.5-63.5-26.5   C15,140.7,14.7,84,49.4,49.3C84.2,14.7,141,14.9,176.1,50c2.3,2.3,5.3,3.4,8.3,3.4c3,0,6-1.2,8.3-3.4c4.6-4.6,4.6-12,0-16.6   c-44.3-44.2-116.1-44.5-160-0.7c-43.9,43.8-43.6,115.4,0.7,159.6l0,0c21.5,21.4,49.9,33.3,80.1,33.4c0.2,0,0.4,0,0.5,0   c30,0,58.2-11.6,79.4-32.7C198.1,188.4,198.1,180.9,193.5,176.3z"/>
	<path class="st4" d="M206.1,165.6c-1.6,0-3.2-0.3-4.7-1c-6-2.6-8.7-9.5-6.1-15.5c9.9-22.8,9.8-49-0.4-71.9c-2.6-5.9,0-12.9,6-15.5   c6-2.6,12.9,0,15.6,6c12.9,28.9,13.1,62,0.5,90.9C215,163,210.7,165.6,206.1,165.6z"/>
</g>
</svg>